
<!-- Generator: visioncortex VTracer 0.6.4 -->
<svg version="1.1" xmlns="http://www.w3.org/2000/svg" viewBox="0 0 1024 1536" preserveAspectRatio="xMidYMid meet">
<path d="M0 0 C337.92 0 675.84 0 1024 0 C1024 506.88 1024 1013.76 1024 1536 C686.08 1536 348.16 1536 0 1536 C0 1029.12 0 522.24 0 0 Z " fill="#000000" transform="translate(0,0)"/>
<path d="M0 0 C8.25 0 16.5 0 25 0 C24.97382 1.98886 24.94763 3.97772 24.92065 6.02686 C24.83791 12.58856 24.78262 19.15028 24.74094 25.71237 C24.71481 29.69215 24.67936 33.6714 24.6228 37.65088 C24.56858 41.48938 24.5386 45.32737 24.52561 49.16623 C24.51636 50.63277 24.49828 52.09929 24.47135 53.56561 C24.43519 55.61582 24.43005 57.66388 24.43237 59.71436 C24.4144 60.32431 24.39642 60.93427 24.3779 61.56271 C24.34421 63.44701 24.34421 63.44701 25 66 C27.32251 67.39815 27.32251 67.39815 30 68 C32.04529 69.12275 34.0546 70.26562 36.05859 71.45703 C36.63528 71.79613 37.21196 72.13522 37.80612 72.48459 C39.68521 73.5906 41.56135 74.70151 43.4375 75.8125 C44.75071 76.58665 46.06411 77.36049 47.37769 78.13403 C51.25438 80.41832 55.12744 82.70872 59 85 C60.0413 85.61563 61.08264 86.23119 62.12402 86.84668 C65.73816 88.98281 69.35216 91.11916 72.96509 93.25732 C82.59703 98.95379 92.26663 104.58545 101.93701 110.21631 C107.10499 113.22557 112.27146 116.23742 117.4375 119.25 C117.9436 119.5451 118.4497 119.84021 118.97113 120.14426 C125.82505 124.14125 132.66958 128.15373 139.50537 132.18164 C145.51514 135.72033 151.53767 139.23702 157.5625 142.75 C158.3261 143.19526 158.3261 143.19526 159.10513 143.64951 C163.71976 146.34009 168.33496 149.02969 172.9502 151.71924 C175.8628 153.4167 178.77521 155.1145 181.6875 156.8125 C183.14144 157.66014 183.14144 157.66014 184.62476 158.5249 C190.24258 161.802 195.85585 165.08671 201.46484 168.37891 C202.10176 168.75266 202.73867 169.12641 203.39488 169.51149 C206.49006 171.32793 209.58473 173.14522 212.67847 174.96411 C219.58052 179.01893 219.58052 179.01893 226.52246 183.00488 C227.11397 183.34069 227.70548 183.6765 228.31491 184.02249 C229.4039 184.63924 230.494 185.25404 231.58572 185.86594 C232.36289 186.30572 232.36289 186.30572 233.15576 186.75439 C233.7072 187.05904 234.25864 187.36368 234.82678 187.67755 C237 189 237 189 239.5708 190.93693 C248.94682 197.79141 257.10982 198.109 268.44238 197.92065 C270.26532 197.92007 272.08826 197.92309 273.91118 197.92941 C277.80965 197.93546 281.70689 197.91674 285.60517 197.87821 C291.76478 197.81779 297.92359 197.81563 304.08344 197.82124 C314.92033 197.82384 325.7566 197.77824 336.59332 197.72144 C352.94998 197.63594 369.30665 197.58591 385.66353 197.58589 C391.79277 197.58401 397.92116 197.5556 404.0502 197.50646 C407.84698 197.48057 411.64359 197.47481 415.44044 197.47441 C417.20744 197.46986 418.97444 197.4566 420.7413 197.43426 C423.14276 197.40497 425.54233 197.40588 427.94391 197.4146 C428.65195 197.39847 429.36 197.38234 430.0895 197.36572 C432.02405 197.39149 432.02405 197.39149 435 198 C436.00351 200.41159 436.00351 200.41159 436 203 C435.67 203.66 435.34 204.32 435 205 C432.75684 205.21014 430.63436 205.28503 428.38792 205.27847 C427.68878 205.28427 426.98964 205.29006 426.26931 205.29603 C423.90923 205.31313 421.54935 205.31591 419.18921 205.31885 C417.50435 205.32814 415.81949 205.33831 414.13464 205.34929 C409.54602 205.3767 404.95742 205.39177 400.36873 205.40472 C395.57872 205.4203 390.78876 205.44711 385.99879 205.47275 C376.92174 205.51962 367.84467 205.55632 358.76756 205.58942 C348.43637 205.62758 338.10525 205.67701 327.77412 205.7274 C306.51613 205.83085 285.25809 205.92007 264 206 C264.56887 206.31129 265.13775 206.62259 265.72386 206.94331 C268.33613 208.37371 270.94737 209.80598 273.55859 211.23828 C274.90069 211.97262 274.90069 211.97262 276.2699 212.7218 C281.25486 215.45799 286.19826 218.24166 291.0625 221.1875 C291.71009 221.57921 292.35769 221.97093 293.0249 222.37451 C293.82855 222.86589 293.82855 222.86589 294.64844 223.36719 C299.87792 226.5445 305.14954 229.6508 310.41663 232.76517 C319.39338 238.07421 328.36358 243.39416 337.3125 248.75 C338.51072 249.46507 338.51072 249.46507 339.73315 250.19458 C340.84944 250.86397 340.84944 250.86397 341.98828 251.54688 C342.68002 251.96002 343.37177 252.37316 344.08447 252.79883 C345.87202 253.91975 347.53812 255.13306 349.23047 256.39062 C351.81083 258.2496 351.81083 258.2496 354.3645 257.77441 C357.23726 256.93028 359.38878 255.78765 361.9375 254.21875 C362.89987 253.63279 363.86223 253.04683 364.85376 252.44312 C365.62008 251.96973 365.62008 251.96973 366.40189 251.48679 C369.1843 249.76873 371.9822 248.07614 374.77734 246.37891 C375.36459 246.02136 375.95183 245.66381 376.55687 245.29543 C383.18126 241.26746 389.86913 237.3494 396.5625 233.4375 C397.79242 232.71781 399.02232 231.99808 400.2522 231.27832 C406.98079 227.34222 413.71517 223.41605 420.4502 219.49097 C421.43601 218.91645 422.42182 218.34193 423.4375 217.75 C424.41558 217.17999 425.39365 216.60999 426.40137 216.02271 C438.75607 208.81717 451.05973 201.52555 463.35938 194.22656 C478.04546 185.51252 492.75931 176.84749 507.49768 168.22217 C511.78852 165.71062 516.07653 163.19429 520.36328 160.67578 C532.72568 153.41475 545.10842 146.19265 557.53641 139.0444 C564.16378 135.23124 570.76498 131.38262 577.3042 127.41992 C583.16271 123.8781 589.08246 120.44185 595 117 C601.41826 113.26616 607.83335 109.52983 614.1875 105.6875 C626.37742 98.32324 638.7049 91.18665 651 84 C651.5919 83.65401 652.1838 83.30802 652.79364 82.95154 C656.65336 80.6956 660.51387 78.44102 664.375 76.1875 C665.34816 75.61943 666.32132 75.05135 667.32397 74.46606 C668.69115 73.66882 668.69115 73.66882 670.08594 72.85547 C670.87017 72.39809 671.6544 71.94072 672.4624 71.46948 C675 70 675 70 676.86055 69.45407 C679.22016 68.59693 680.39989 67.95734 682 66 C682.70324 61.74365 682.47021 57.64594 682.19174 53.35415 C682.05738 51.15202 681.98124 48.95521 681.92336 46.74982 C681.75576 40.487 681.53969 34.23164 681.14673 27.97852 C679.84647 6.50175 679.84647 6.50175 683 0 C690.14184 -4.12612 699.39595 -1.8142 707 0 C707.30177 10.42211 707.53246 20.84317 707.67356 31.26877 C707.7413 36.1106 707.83308 40.94944 707.98071 45.78955 C708.12242 50.46474 708.19978 55.13706 708.2334 59.81424 C708.25735 61.59438 708.30412 63.37438 708.37449 65.15329 C708.88969 78.72205 708.88969 78.72205 705.7423 82.51611 C702.67525 85.10134 699.28938 86.79136 695.6004 88.31572 C693.28695 89.30488 691.16921 90.58447 689.01562 91.87891 C687.42788 92.77485 685.83932 93.66935 684.25 94.5625 C676.17893 99.13571 668.19497 103.8376 660.25 108.625 C659.71316 108.94844 659.17631 109.27189 658.6232 109.60513 C657.55061 110.25144 656.47802 110.89775 655.40544 111.54408 C654.88622 111.85696 654.36699 112.16983 653.83203 112.49219 C653.32034 112.80059 652.80865 113.10899 652.28145 113.42674 C647.54738 116.27763 642.78696 119.08171 638.01807 121.87378 C633.17208 124.71467 628.33954 127.57762 623.51172 130.44922 C622.83553 130.85138 622.15935 131.25354 621.46268 131.66789 C620.06129 132.50141 618.65992 133.33494 617.25854 134.16849 C616.55448 134.58726 615.85041 135.00604 615.125 135.4375 C614.42109 135.85619 613.71718 136.27489 612.99194 136.70627 C604.28471 141.88367 595.55548 147.01558 586.76855 152.05688 C579.43225 156.28689 572.21212 160.70688 564.99976 165.1438 C560.14139 168.12506 555.25409 171.00341 550.25635 173.74414 C546.03515 176.09361 541.90006 178.59028 537.75 181.0625 C530.49977 185.36805 523.21554 189.60054 515.875 193.75 C506.753 198.91531 497.8011 204.33926 488.85806 209.80576 C481.3699 214.38103 473.85487 218.86338 466.17188 223.10669 C461.74156 225.55859 457.42995 228.16124 453.13647 230.84424 C447.63825 234.26271 442.03038 237.48695 436.41284 240.70459 C430.87547 243.88477 425.39372 247.15125 419.92212 250.4427 C415.42797 253.14561 410.92512 255.83324 406.41406 258.50781 C405.7829 258.88212 405.15173 259.25643 404.50143 259.64207 C401.85484 261.21122 399.20787 262.77973 396.56067 264.34784 C389.19211 268.71356 381.83094 273.08965 374.50781 277.53125 C373.35075 278.23161 372.19369 278.93197 371.03662 279.63232 C368.89281 280.93037 366.75322 282.23503 364.61572 283.54346 C363.66488 284.11951 362.71403 284.69556 361.73438 285.28906 C360.50026 286.04244 360.50026 286.04244 359.24121 286.81104 C357.07151 287.96206 355.43735 288.7211 353 289 C351.14746 288.35425 351.14746 288.35425 349.23438 287.26172 C348.5183 286.85929 347.80223 286.45686 347.06445 286.04224 C346.30068 285.59517 345.53691 285.14811 344.75 284.6875 C343.94498 284.22819 343.13996 283.76888 342.31055 283.29565 C336.64769 280.03706 331.10261 276.60813 325.59351 273.09766 C319.2765 269.1017 312.79993 265.39646 306.3125 261.6875 C298.34994 257.13244 290.46098 252.499 282.6875 247.625 C272.6705 241.34943 262.4884 235.37857 252.27972 229.42276 C251.66277 229.06282 251.04581 228.70288 250.41016 228.33203 C249.79207 227.97153 249.17399 227.61102 248.53717 227.23959 C242.66899 223.81362 236.82673 220.34468 230.98682 216.87082 C220.39679 210.57228 209.75528 204.36975 199.07446 198.22656 C188.66519 192.23925 178.31621 186.15375 167.98828 180.02734 C157.3228 173.70569 146.61972 167.4579 135.87183 161.27786 C128.985 157.31673 122.12658 153.31672 115.33057 149.20117 C110.5678 146.3228 105.7584 143.52975 100.9375 140.75 C87.86397 133.20886 74.86126 125.54513 61.9375 117.75 C54.68135 113.37719 47.37179 109.09563 40.0625 104.8125 C39.44144 104.44854 38.82039 104.08458 38.18051 103.70959 C31.40099 99.73763 24.61664 95.7741 17.82422 91.82422 C17.26231 91.49727 16.70041 91.17031 16.12148 90.83345 C13.46503 89.28776 10.80776 87.74355 8.14868 86.20239 C7.2179 85.66123 6.28711 85.12006 5.32812 84.5625 C4.10464 83.85287 4.10464 83.85287 2.85645 83.12891 C1 82 1 82 0 81 C-0.09504 78.47459 -0.12557 75.97663 -0.11353 73.45093 C-0.11367 72.66074 -0.11382 71.87056 -0.11397 71.05643 C-0.11327 68.43212 -0.10548 65.80789 -0.09766 63.18359 C-0.09579 61.36898 -0.09437 59.55437 -0.09337 57.73976 C-0.08954 52.9541 -0.07971 48.16846 -0.06866 43.38281 C-0.05845 38.50326 -0.05387 33.6237 -0.04883 28.74414 C-0.03809 19.16275 -0.02049 9.58138 0 0 Z " fill="#62BFEA" transform="translate(158,870)"/>
<path d="M0 0 C3.99601 1.89575 7.79838 4.12727 11.61572 6.35547 C12.55005 6.89518 13.48438 7.4349 14.44702 7.99097 C20.64716 11.57913 26.82564 15.2045 32.99146 18.85132 C39.03685 22.42197 45.11982 25.92629 51.20578 29.42712 C59.21626 34.03519 67.21509 38.65458 75.11987 43.44263 C80.83127 46.89401 86.59799 50.24934 92.36572 53.60547 C101.25704 58.77993 110.12883 63.98583 118.98047 69.22803 C123.17108 71.70974 127.36386 74.18723 131.56885 76.64453 C138.49979 80.69654 145.35081 84.80715 152.09302 89.16699 C154.66454 90.76907 157.26563 92.23038 159.93604 93.66016 C165.62516 96.7403 171.22192 99.95981 176.80322 103.23047 C177.84267 103.83818 178.88214 104.44584 179.92163 105.05347 C188.19203 109.89254 196.43591 114.77617 204.67514 119.66806 C213.63797 124.98954 222.6203 130.27678 231.61572 135.54297 C244.59501 143.14207 257.54914 150.78277 270.49023 158.44678 C281.74227 165.10978 293.01216 171.74034 304.31226 178.32153 C313.91894 183.91761 323.50909 189.54176 333.09644 195.1709 C334.27083 195.86003 335.44523 196.54916 336.61963 197.23828 C337.14162 197.54503 337.66361 197.85177 338.20142 198.16782 C338.70496 198.46322 339.2085 198.75863 339.72729 199.06299 C340.21964 199.36761 340.71199 199.67223 341.21925 199.98608 C342.81345 200.92143 342.81345 200.92143 344.72008 201.5022 C346.95799 202.37127 348.21215 203.04122 349.80322 204.85547 C350.81295 209.27627 350.61741 213.65239 350.48682 218.15234 C350.47375 219.46939 350.46379 220.78648 350.4568 222.10358 C350.43013 225.56344 350.36142 229.02124 350.28387 232.48029 C350.21215 236.01261 350.18027 239.54528 350.14502 243.07812 C350.07004 250.00496 349.94696 256.92972 349.80322 263.85547 C341.88322 263.85547 333.96322 263.85547 325.80322 263.85547 C325.89023 259.1259 325.89023 259.1259 325.979 254.30078 C326.01797 251.25605 326.04834 248.21134 326.07788 245.1665 C326.10307 243.04594 326.13722 240.92545 326.18042 238.80518 C326.24089 235.76183 326.26939 232.71962 326.2915 229.67578 C326.31731 228.72366 326.34312 227.77153 326.36971 226.79056 C326.37074 224.38007 326.33716 222.20609 325.80322 219.85547 C323.63644 218.2495 323.63644 218.2495 320.80322 217.85547 C319.00171 216.91502 317.21603 215.94384 315.44385 214.94922 C314.94246 214.66865 314.44107 214.38807 313.92448 214.099 C312.29884 213.18782 310.67591 212.27191 309.05322 211.35547 C307.91661 210.7161 306.77997 210.07678 305.64331 209.4375 C298.11829 205.19767 290.6447 200.87753 283.21729 196.46875 C278.38227 193.59887 273.52243 190.77201 268.66302 187.9437 C260.46425 183.17097 252.27928 178.37577 244.11572 173.54297 C225.75395 162.67371 207.33334 151.90426 188.89697 141.16211 C183.51971 138.02775 178.14692 134.88603 172.77979 131.73438 C172.17915 131.38171 171.57851 131.02904 170.95967 130.66568 C170.35447 130.31033 169.74927 129.95498 169.12573 129.58887 C158.56237 123.38665 147.98387 117.21349 137.36572 111.10547 C128.65231 106.09258 119.97266 101.02646 111.3252 95.90039 C103.81023 91.44608 96.27838 87.02123 88.74072 82.60547 C87.50675 81.88241 86.27279 81.15934 85.03882 80.43628 C80.06491 77.52206 75.09045 74.60877 70.11523 71.69678 C57.54672 64.34039 44.98226 56.97754 32.4523 49.55563 C30.76275 48.556 29.07158 47.55915 27.38013 46.56274 C22.16588 43.4852 16.99212 40.36427 11.88135 37.11719 C10.50862 36.25638 10.50862 36.25638 9.10815 35.37817 C7.41661 34.31333 5.73519 33.23213 4.06665 32.13159 C-0.28861 29.33529 -0.28861 29.33529 -5.31787 29.28906 C-8.62461 31.08825 -11.80086 32.97712 -14.94678 35.04297 C-22.07783 39.6097 -29.3524 43.89503 -36.69678 48.10547 C-37.81763 48.74861 -38.93848 49.39176 -40.05933 50.03491 C-41.75706 51.00894 -43.45485 51.98286 -45.15291 52.95631 C-50.9976 56.30933 -56.8173 59.70468 -62.63428 63.10547 C-69.79197 67.28783 -76.95625 71.45811 -84.13428 75.60547 C-90.58575 79.33434 -97.01802 83.09412 -103.43726 86.87817 C-109.63943 90.53243 -115.85379 94.16571 -122.07178 97.79297 C-122.5838 98.09171 -123.09582 98.39045 -123.62335 98.69824 C-130.49222 102.70515 -137.37203 106.69273 -144.25928 110.66797 C-149.62329 113.76487 -154.96062 116.89809 -160.25928 120.10547 C-167.13903 124.26809 -174.10259 128.28279 -181.07178 132.29297 C-193.42347 139.40138 -205.74132 146.56043 -217.94678 153.91797 C-240.16013 167.30191 -262.65581 180.23338 -285.07178 193.27344 C-295.50012 199.34305 -305.9122 205.43922 -316.2977 211.58185 C-317.51684 212.30283 -318.73626 213.02333 -319.95596 213.74335 C-321.65045 214.744 -323.34372 215.74667 -325.03662 216.75 C-326.00978 217.32597 -326.98294 217.90194 -327.9856 218.49536 C-330.0916 219.67302 -330.0916 219.67302 -331.19678 220.85547 C-331.19424 222.21033 -331.12208 223.56516 -331.02124 224.91626 C-329.01343 255.47031 -329.01343 255.47031 -332.19678 263.85547 C-335.15962 266.40294 -336.9273 266.70585 -340.80005 266.92554 C-354.40907 265.64318 -354.40907 265.64318 -357.19678 262.85547 C-357.33753 261.1088 -357.40912 259.35651 -357.45312 257.60474 C-357.4821 256.483 -357.51107 255.36125 -357.54092 254.20552 C-357.63061 249.73354 -357.69828 245.26121 -357.74522 240.78858 C-357.78095 237.39328 -357.83414 234.00036 -357.93066 230.6062 C-358.02373 227.32391 -358.07217 224.04371 -358.08961 220.76017 C-358.10367 219.51165 -358.13324 218.26321 -358.17891 217.01545 C-358.51768 207.2824 -358.51768 207.2824 -355.32303 203.83131 C-353.01327 202.26748 -350.72078 201.03642 -348.19678 199.85547 C-346.74972 198.96855 -346.74972 198.96855 -345.27344 198.06372 C-344.43603 197.57863 -343.59862 197.09354 -342.73584 196.59375 C-341.77944 196.03784 -340.82303 195.48193 -339.83765 194.90918 C-338.84241 194.33458 -337.84717 193.75998 -336.82178 193.16797 C-335.761 192.55267 -334.70037 191.9371 -333.63989 191.32129 C-330.98929 189.78304 -328.3368 188.2481 -325.68341 186.71466 C-323.45688 185.42785 -321.23117 184.13963 -319.00537 182.85156 C-316.64106 181.48353 -314.27672 180.11556 -311.91211 178.74805 C-301.8356 172.91686 -291.80922 167.0016 -281.79834 161.05859 C-279.4729 159.67826 -277.14738 158.29804 -274.82178 156.91797 C-274.23834 156.57172 -273.65489 156.22548 -273.05377 155.86874 C-264.98946 151.08463 -256.90258 146.34305 -248.77979 141.65869 C-240.88918 137.10774 -233.04207 132.48397 -225.19678 127.85547 C-216.38256 122.65533 -207.55775 117.47564 -198.69678 112.35547 C-192.21479 108.60961 -185.74828 104.83926 -179.29858 101.03809 C-172.2496 96.88401 -165.19269 92.7435 -158.13428 88.60547 C-157.51006 88.23948 -156.88584 87.87348 -156.24271 87.4964 C-146.77915 81.94825 -137.30526 76.4181 -127.82593 70.89697 C-120.12587 66.40781 -112.45332 61.87312 -104.7854 57.32935 C-99.9042 54.44114 -95.00813 51.58576 -90.07178 48.79297 C-84.70607 45.7545 -79.41483 42.6019 -74.13428 39.41797 C-56.09001 28.54514 -37.87496 17.95718 -19.63428 7.41797 C-18.80147 6.93619 -18.80147 6.93619 -17.95184 6.44467 C-16.38711 5.53992 -14.82142 4.63684 -13.25537 3.73438 C-11.92977 2.96976 -11.92977 2.96976 -10.57739 2.1897 C-9.79179 1.7494 -9.00619 1.30911 -8.19678 0.85547 C-7.48683 0.45513 -6.77688 0.0548 -6.04541 -0.35767 C-3.69018 -1.36016 -2.33501 -0.91793 0 0 Z " fill="#62C0EA" transform="translate(515.19677734375,381.14453125)"/>
<path d="M0 0 C13.37792 4.9117 24.33743 15.06038 30.60596 27.85034 C35.694 39.1781 37.2931 51.67355 37 64 C37.66 64 38.32 64 39 64 C39.5196 62.36183 39.5196 62.36183 39.8125 60.25 C42.07266 49.24249 47.12251 40.66939 54 32 C56.02743 35.41505 56.3698 38.38824 56.75 42.3125 C58.47397 55.91938 65.04549 67.38004 71.77295 79.14844 C77.86996 89.92837 81.61734 101.12008 79.4375 113.6875 C76.31676 124.84464 68.40221 133.42575 58.48828 139.08203 C57.26893 139.73256 56.04366 140.37211 54.8125 141 C53.95785 141.43639 53.95785 141.43639 53.08594 141.88159 C49.06183 143.79897 45.43262 144.54942 41 145 C41.47051 144.29875 41.94102 143.5975 42.42578 142.875 C43.0484 141.92625 43.67102 140.9775 44.3125 140 C45.23482 138.60781 45.23482 138.60781 46.17578 137.1875 C50.15111 130.583 51.53474 124.48343 51.4375 116.8125 C51.43138 115.98315 51.42525 115.1538 51.41895 114.29932 C51.15182 103.68624 47.61016 94.49007 43 85 C41.36143 87.32934 40.01087 89.78558 38.63892 92.27832 C35.72857 97.50592 33.01243 101.57688 28 105 C26.85948 102.71896 26.94314 101.68923 27.07812 99.17578 C27.66259 83.83117 24.90548 71.68186 16 59 C15.67 58.67 15.34 58.34 15 58 C14.87472 58.52207 14.74944 59.04414 14.62036 59.58203 C14.02325 62.05606 13.41873 64.52819 12.8125 67 C12.59054 67.91121 12.36858 68.82241 12.13989 69.76123 C10.91836 74.67397 9.55125 79.44927 7.85889 84.21875 C4.57547 93.54126 4.48905 102.18981 5 112 C-0.77372 109.16542 -6.45218 106.25633 -12 103 C-15.40163 109.80326 -12.53026 119.93623 -11 127 C-20.86085 125.68219 -32.21036 122.63429 -39.1875 115.125 C-46.87544 104.97769 -47.37576 91.12908 -45.71582 78.90771 C-43.63604 67.19013 -39.04557 55.93118 -31 47 C-28.25 45.1875 -28.25 45.1875 -26 44 C-26.06961 45.21623 -26.06961 45.21623 -26.14062 46.45703 C-26.60212 60.61499 -21.2762 72.29669 -12 83 C-12.23977 81.33904 -12.23977 81.33904 -12.48438 79.64453 C-14.28423 65.13403 -13.5516 51.80587 -8.08984 38.25 C-7.73857 37.37803 -7.3873 36.50606 -7.02539 35.60767 C-6.31992 33.87612 -5.60189 32.14962 -4.86914 30.42944 C-1.50911 22.38403 0.31078 14.60675 0.125 5.875 C0.10695 4.75867 0.08891 3.64234 0.07031 2.49219 C0.04711 1.66977 0.02391 0.84734 0 0 Z " fill="#62BFE9" transform="translate(488,875)"/>
<path d="M0 0 C0.55172 0.16887 1.10344 0.33773 1.67188 0.51172 C3.67176 1.52651 4.843 2.56085 6.25 4.3125 C7.63451 8.66501 7.75656 12.23331 5.8125 16.375 C4.99606 17.38584 4.13641 18.36242 3.25 19.3125 C2.70086 19.91578 2.15172 20.51906 1.58594 21.14062 C-3.3104 26.2586 -8.70834 30.74474 -14.2583 35.12842 C-15.76486 36.32429 -17.25543 37.53831 -18.74609 38.75391 C-29.49741 47.40592 -41.13834 54.85581 -54.0625 59.8125 C-54.65909 60.04356 -55.25569 60.27463 -55.87036 60.5127 C-83.72545 70.44184 -113.29847 62.32541 -140.29663 54.00513 C-145.84054 52.43999 -151.02302 52.06872 -156.75 52 C-157.52473 51.971 -158.29945 51.94199 -159.09766 51.91211 C-166.4803 51.83408 -172.85388 53.92169 -179.75 56.3125 C-179.95278 49.69275 -180.09291 43.0738 -180.18945 36.45166 C-180.2297 34.19908 -180.2843 31.9467 -180.35352 29.69482 C-180.45054 26.45748 -180.49592 23.2229 -180.53125 19.98438 C-180.57254 18.97695 -180.61383 17.96953 -180.65637 16.93158 C-180.65815 14.16887 -180.59924 11.94305 -179.75 9.3125 C-177.31525 7.18755 -174.81149 6.24856 -171.75 5.3125 C-170.71875 4.90645 -169.6875 4.50039 -168.625 4.08203 C-162.98563 2.2048 -157.70134 0.56986 -151.75 0.3125 C-150.32107 0.23516 -150.32107 0.23516 -148.86328 0.15625 C-135.63087 -0.22684 -124.92347 2.91611 -113.10156 8.33984 C-97.22087 15.61941 -81.85139 20.82548 -64.50952 23.13599 C-53.33905 24.72345 -53.33905 24.72345 -49.75 28.3125 C-49.375 30.625 -49.375 30.625 -49.75 33.3125 C-54.94729 38.23625 -59.0481 38.87467 -65.99219 38.74609 C-72.0746 38.38243 -77.91384 36.75268 -83.8125 35.3125 C-102.45871 30.4599 -102.45871 30.4599 -120.75 33.3125 C-120.18418 33.37719 -119.61836 33.44189 -119.0354 33.50854 C-107.49907 34.85455 -96.16976 36.554 -84.8125 39 C-77.71819 40.4961 -70.8301 41.78221 -63.5625 41.8125 C-62.6374 41.82156 -62.6374 41.82156 -61.6936 41.83081 C-57.29389 41.70525 -54.52214 40.36507 -50.75 38.3125 C-50.09 38.3125 -49.43 38.3125 -48.75 38.3125 C-47.42023 36.22013 -46.78209 34.58943 -46.49609 32.12109 C-46.00798 28.37068 -45.14035 25.52125 -42.20605 22.97021 C-38.75014 20.50595 -35.11255 18.36434 -31.46484 16.19922 C-26.03132 12.96644 -21.1135 9.15364 -16.19263 5.1958 C-11.54837 1.56956 -6.14236 -2.06208 0 0 Z " fill="#62BFE9" transform="translate(584.75,998.6875)"/>
<path d="M0 0 C7.59614 6.26375 12.7598 13.05433 13.97754 23.1333 C14.88362 34.77849 13.27911 44.41298 5.625 53.625 C-1.30507 60.82998 -9.26429 64.28864 -19.13843 64.54321 C-31.33307 64.64837 -38.98567 62.38126 -48.04688 53.76172 C-55.88129 44.82993 -57.09821 34.71888 -56.47217 23.28906 C-55.53587 14.6957 -50.72381 6.83043 -44.25 1.25 C-31.36207 -7.68472 -13.21245 -9.3235 0 0 Z " fill="#62BEE8" transform="translate(238.25,690.75)"/>
<path d="M0 0 C8.6625 -0.09281 8.6625 -0.09281 17.5 -0.1875 C20.20993 -0.22847 20.20993 -0.22847 22.97461 -0.27026 C24.43098 -0.27904 25.88736 -0.28668 27.34375 -0.29297 C28.08013 -0.30832 28.8165 -0.32366 29.5752 -0.33948 C36.63153 -0.34298 43.35902 1.52235 48.67969 6.36328 C52.91794 11.61721 54.66514 18.23673 54.32422 24.90234 C53.4589 30.50088 50.8765 34.89547 47 39 C42.65517 42 42.65517 42 40 42 C40.30704 42.47309 40.61408 42.94617 40.93042 43.43359 C42.35013 45.62195 43.76882 47.81097 45.1875 50 C45.67025 50.74379 46.15301 51.48758 46.65039 52.25391 C49.8155 57.13964 52.93106 62.0533 56 67 C40.10356 69.39518 40.10356 69.39518 35.71484 66.48438 C34.1535 64.06624 33.09872 61.66045 32 59 C30.76563 56.81907 29.43769 54.69696 28.125 52.5625 C25 47.34932 25 47.34932 25 45 C22.03 45 19.06 45 16 45 C16.02618 45.66121 16.05237 46.32242 16.07935 47.00366 C16.18287 49.98137 16.24818 52.9587 16.3125 55.9375 C16.35439 56.97842 16.39629 58.01934 16.43945 59.0918 C16.45557 60.08115 16.47168 61.07051 16.48828 62.08984 C16.51447 63.00629 16.54065 63.92273 16.56763 64.86694 C16.38031 65.57085 16.19299 66.27476 16 67 C11 68 11 68 0 68 C0 45.56 0 23.12 0 0 Z " fill="#62BEE8" transform="translate(526,787)"/>
<path d="M0 0 C2.58446 -0.10819 5.16437 -0.18737 7.75 -0.25 C8.47961 -0.28352 9.20922 -0.31703 9.96094 -0.35156 C15.421 -0.45084 15.421 -0.45084 18.39453 1.8645 C18.92434 2.56922 19.45414 3.27393 20 4 C20.63937 4.79793 21.27875 5.59586 21.9375 6.41797 C22.95844 7.78889 22.95844 7.78889 24 9.1875 C24.37665 9.69289 24.7533 10.19829 25.14136 10.71899 C29.13718 16.11774 32.99482 21.61567 36.83789 27.12378 C37.32064 27.81383 37.8034 28.50388 38.30078 29.21484 C38.72529 29.82449 39.14979 30.43414 39.58716 31.06226 C41.31792 33.43604 43.15242 35.71645 45 38 C44.91976 36.2733 44.91976 36.2733 44.83789 34.51172 C44.66128 30.2626 44.58869 26.01707 44.54834 21.76465 C44.5161 19.92083 44.45518 18.07728 44.36572 16.23535 C44.24212 13.58989 44.22014 10.96049 44.21875 8.3125 C44.15804 7.4813 44.09734 6.65009 44.03479 5.7937 C44.0918 3.48828 44.0918 3.48828 46 0 C51.28 0 56.56 0 62 0 C62 22.11 62 44.22 62 67 C47 67 47 67 42.875 63.125 C41.94013 61.69004 41.00919 60.25179 40.12402 58.78564 C38.30189 55.89097 36.24779 53.16923 34.22388 50.41357 C32.51336 48.08072 30.82616 45.73264 29.14453 43.37891 C27.24516 40.72552 25.33276 38.08419 23.38672 35.46484 C23.00902 34.95494 22.63133 34.44503 22.24219 33.91968 C21.26213 32.60046 20.27773 31.28447 19.29297 29.96875 C18 28 18 28 18 26 C17.34 26 16.68 26 16 26 C16 39.53 16 53.06 16 67 C11.05 67 6.1 67 1 67 C-0.5551 65.4449 -0.11927 63.77335 -0.12442 61.68713 C-0.12082 61.07358 -0.11723 60.46003 -0.11353 59.82788 C-0.11367 59.184 -0.11382 58.54012 -0.11397 57.87672 C-0.11327 55.7394 -0.10548 53.60216 -0.09766 51.46484 C-0.09579 49.98654 -0.09437 48.50823 -0.09337 47.02992 C-0.08954 43.13201 -0.07971 39.23414 -0.06866 35.33624 C-0.05845 31.36154 -0.05387 27.38682 -0.04883 23.41211 C-0.03809 15.60806 -0.02102 7.80403 0 0 Z " fill="#62BEE7" transform="translate(473,687)"/>
<path d="M0 0 C0.67545 -0.00876 1.3509 -0.01752 2.04681 -0.02655 C4.26885 -0.04847 6.48888 -0.03402 8.71094 -0.01709 C10.26123 -0.02046 11.81153 -0.02531 13.36182 -0.03159 C16.6067 -0.03895 19.8509 -0.02828 23.0957 -0.00488 C27.24894 0.02361 31.40056 0.0072 35.55374 -0.02275 C38.75379 -0.04084 41.95345 -0.03505 45.1535 -0.02211 C46.68447 -0.01878 48.21547 -0.02284 49.7464 -0.0345 C51.88915 -0.04725 54.02931 -0.02779 56.17188 0 C56.8006 -0.01012 57.42932 -0.02024 58.07709 -0.03067 C61.55192 0.05256 63.51497 0.68175 65.96729 3.04703 C69.0358 6.81262 69.37939 9.88458 69.08594 14.64697 C68.29284 17.69042 67.08907 19.93732 64.45703 21.79932 C61.06322 23.01259 57.90849 22.85977 54.33594 22.77197 C53.28986 22.75844 53.28986 22.75844 52.22266 22.74463 C50.51027 22.72117 48.79806 22.6853 47.08594 22.64697 C47.10165 23.58549 47.10165 23.58549 47.11768 24.54297 C47.15917 27.36926 47.18524 30.19549 47.21094 33.02197 C47.2277 34.00682 47.24445 34.99166 47.26172 36.00635 C47.27139 37.41787 47.27139 37.41787 47.28125 38.85791 C47.29696 40.16188 47.29696 40.16188 47.31299 41.49219 C47.08594 43.64697 47.08594 43.64697 45.08594 45.64697 C42.48438 46.06104 42.48438 46.06104 39.46094 46.27197 C38.45805 46.34674 37.45516 46.4215 36.42188 46.49854 C35.65102 46.54752 34.88016 46.5965 34.08594 46.64697 C34.48658 50.65342 34.80846 53.1434 36.77344 56.70947 C38.08594 59.64697 38.08594 59.64697 37.46094 62.95947 C36.08594 65.64697 36.08594 65.64697 33.08594 66.64697 C31.42135 66.74006 29.75312 66.77693 28.08594 66.77197 C26.78656 66.77584 26.78656 66.77584 25.46094 66.77979 C23.08594 66.64697 23.08594 66.64697 20.08594 65.64697 C18.67593 62.82696 18.84045 60.7769 19.08594 57.64697 C19.58094 56.8426 20.07594 56.03822 20.58594 55.20947 C22.60202 51.76533 22.31769 49.58682 22.08594 45.64697 C21.39887 45.67018 20.7118 45.69338 20.00391 45.71729 C19.10285 45.73533 18.2018 45.75338 17.27344 45.77197 C16.38012 45.79518 15.4868 45.81838 14.56641 45.84229 C11.91357 45.6334 10.99409 45.44851 9.08594 43.64697 C8.74536 41.49219 8.74536 41.49219 8.79297 38.85791 C8.80264 37.91689 8.8123 36.97588 8.82227 36.00635 C8.8474 35.0215 8.87254 34.03666 8.89844 33.02197 C8.91197 32.02939 8.92551 31.03682 8.93945 30.01416 C8.97488 27.55789 9.02428 25.1027 9.08594 22.64697 C7.54873 22.71658 7.54873 22.71658 5.98047 22.7876 C4.61982 22.82513 3.25914 22.86153 1.89844 22.89697 C1.2249 22.93049 0.55137 22.964 -0.14258 22.99854 C-3.91057 23.07206 -5.54911 22.88274 -8.81641 20.77197 C-11.64047 17.9111 -12.84002 15.78977 -12.98047 11.7251 C-12.70064 7.21388 -11.78712 4.98333 -8.42513 1.73064 C-5.82829 -0.13169 -3.06736 -0.04938 0 0 Z " fill="#62BEE8" transform="translate(483.9140625,482.35302734375)"/>
<path d="M0 0 C0.9075 -0.09604 1.815 -0.19207 2.75 -0.29102 C5.64072 -0.40301 7.57467 -0.30788 10.25 0.8125 C12.50155 3.93224 13.5705 7.27461 14.6731 10.94003 C15.48006 13.5592 16.43004 16.12012 17.36969 18.69405 C18.65714 22.24184 19.88567 25.81018 21.125 29.375 C22.17763 32.38744 23.23292 35.39894 24.28906 38.41016 C24.67294 39.50567 24.67294 39.50567 25.06458 40.62332 C27.41539 47.31654 29.85455 53.97462 32.37061 60.60767 C34.25 65.60767 34.25 65.60767 34.25 67.8125 C22.30904 69.07826 22.30904 69.07826 17.25 67.8125 C14.03427 64.37907 13.25 60.44166 13.25 55.8125 C9.60272 55.54032 5.96079 55.34102 2.3064 55.20825 C1.06479 55.15294 -0.1761 55.07786 -1.41528 54.98267 C-5.35461 54.68765 -8.95198 54.5322 -12.75 55.8125 C-14.84688 59.35269 -15.2773 62.7745 -15.75 66.8125 C-16.75 67.8125 -16.75 67.8125 -18.42407 67.92603 C-19.48453 67.91817 -19.48453 67.91817 -20.56641 67.91016 C-21.33018 67.90693 -22.09395 67.90371 -22.88086 67.90039 C-23.6833 67.89201 -24.48574 67.88363 -25.3125 67.875 C-26.11881 67.87049 -26.92512 67.86598 -27.75586 67.86133 C-29.75398 67.8495 -31.75195 67.83303 -33.75 67.8125 C-33.09757 62.35277 -31.31339 57.5402 -29.36328 52.41797 C-29.02379 51.51235 -28.6843 50.60673 -28.33452 49.67366 C-27.24897 46.78048 -26.15611 43.89014 -25.0625 41 C-23.63946 37.22358 -22.21969 33.44594 -20.80078 29.66797 C-20.4554 28.75071 -20.11003 27.83345 -19.75418 26.8884 C-17.25578 20.23041 -14.85433 13.54276 -12.54817 6.81572 C-10.00741 -0.53048 -7.34835 0.36434 0 0 Z " fill="#62BEE8" transform="translate(422.75,686.1875)"/>
<path d="M0 0 C6.12563 -0.06187 12.25125 -0.12375 18.5625 -0.1875 C20.48264 -0.21481 22.40278 -0.24212 24.3811 -0.27026 C25.92203 -0.27903 27.46297 -0.28668 29.00391 -0.29297 C29.78858 -0.30832 30.57326 -0.32366 31.38171 -0.33948 C38.85498 -0.34299 44.45547 1.7635 50 7 C54.56604 13.52291 54.69048 20.22462 54 28 C52.28737 34.46873 47.66612 39.5744 42 43 C37.76143 44.61933 34.01036 45.13908 29.5 44.67578 C22.97244 43.87136 22.97244 43.87136 17 46 C14.60449 52.53183 16.11926 60.28223 17 67 C11.39 67 5.78 67 0 67 C0 44.89 0 22.78 0 0 Z " fill="#62BEE8" transform="translate(270,687)"/>
<path d="M0 0 C0.76393 -0.12802 1.52786 -0.25604 2.31494 -0.38794 C11.40778 -0.75295 11.40778 -0.75295 15.77344 0.80078 C17.93165 3.3567 18.56166 6.16581 19.36328 9.37109 C19.9111 11.20608 20.4627 13.03994 21.01758 14.8728 C21.29747 15.84185 21.57735 16.81089 21.86572 17.8093 C23.40566 22.88435 25.30276 27.8216 27.17578 32.78125 C27.92865 34.8076 28.6806 36.8343 29.43164 38.86133 C30.19121 40.90372 30.95098 42.94603 31.71094 44.98828 C32.87757 48.12439 34.04363 51.26071 35.20766 54.39778 C35.92392 56.32811 36.64167 58.25789 37.36107 60.18706 C37.67883 61.04338 37.99659 61.89971 38.32397 62.78198 C38.60486 63.53662 38.88575 64.29126 39.17516 65.06877 C39.77344 66.80078 39.77344 66.80078 39.77344 67.80078 C34.43425 69.04241 28.19057 69.76833 22.77344 68.80078 C19.93889 66.17826 19.38254 63.53152 18.77344 59.80078 C18.44344 58.81078 18.11344 57.82078 17.77344 56.80078 C14.29647 56.03697 10.78977 56.03043 7.23657 55.97021 C5.47252 55.92607 3.72317 55.80764 1.96289 55.6875 C-1.43743 55.6204 -4.02056 55.64541 -7.22656 56.80078 C-8.99206 59.63071 -9.72285 62.07073 -10.40698 65.32764 C-10.67744 66.14377 -10.94791 66.95991 -11.22656 67.80078 C-14.59868 69.29703 -18.33508 68.9153 -21.97656 68.86328 C-22.57855 68.85877 -23.18055 68.85426 -23.80078 68.84961 C-25.27608 68.8379 -26.75134 68.81997 -28.22656 68.80078 C-27.75567 62.32131 -25.43433 56.63729 -23.07709 50.64587 C-21.82398 47.45907 -20.59508 44.26299 -19.36719 41.06641 C-19.11102 40.40038 -18.85485 39.73436 -18.59091 39.04816 C-15.09648 29.91359 -11.88824 20.67554 -8.66846 11.44141 C-8.44442 10.80205 -8.22039 10.1627 -7.98956 9.50397 C-7.56909 8.30351 -7.15111 7.10217 -6.73602 5.89984 C-5.16606 1.41996 -4.67159 0.72352 0 0 Z " fill="#62BEE7" transform="translate(471.2265625,786.19921875)"/>
<path d="M0 0 C16.83 0 33.66 0 51 0 C51 4.62 51 9.24 51 14 C39.78 14 28.56 14 17 14 C17 17.63 17 21.26 17 25 C26.9 25 36.8 25 47 25 C47 29.62 47 34.24 47 39 C37.1 39 27.2 39 17 39 C17 43.29 17 47.58 17 52 C28.55 52 40.1 52 52 52 C52 56.95 52 61.9 52 67 C34.84 67 17.68 67 0 67 C0 44.89 0 22.78 0 0 Z " fill="#62BCE5" transform="translate(696,687)"/>
<path d="M0 0 C5.28 0 10.56 0 16 0 C16 7.92 16 15.84 16 24 C29.17184 26.33703 29.17184 26.33703 42 24 C44.2333 19.09183 43.43844 13.72341 42.55835 8.53711 C42.13281 5.25 42.13281 5.25 43 0 C48.28 0 53.56 0 59 0 C59 22.11 59 44.22 59 67 C53.72 67 48.44 67 43 67 C43 57.76 43 48.52 43 39 C34.09 39 25.18 39 16 39 C16 48.24 16 57.48 16 67 C10.72 67 5.44 67 0 67 C0 44.89 0 22.78 0 0 Z " fill="#62BFE9" transform="translate(848,687)"/>
<path d="M0 0 C2.04048 1.83419 3.14447 2.9017 3.77734 5.59766 C2.14453 8.02734 2.14453 8.02734 -0.34766 10.47266 C-1.15461 11.29508 -1.96156 12.1175 -2.79297 12.96484 C-3.59477 13.50367 -4.39656 14.0425 -5.22266 14.59766 C-7.30078 13.98828 -7.30078 13.98828 -9.22266 12.59766 C-15.17778 9.03498 -20.21286 7.52689 -27.22266 8.59766 C-29.06951 9.18243 -29.06951 9.18243 -30.22266 10.59766 C-30.80599 13.09766 -30.80599 13.09766 -30.22266 15.59766 C-28.57726 16.92341 -28.57726 16.92341 -26.22266 17.59766 C-25.31773 17.92121 -24.41281 18.24477 -23.48047 18.57812 C-21.08459 19.32792 -18.69382 20.03505 -16.27734 20.71094 C-1.37631 24.93961 -1.37631 24.93961 3.77734 31.59766 C6.21666 36.273 6.49438 41.41227 5.77734 46.59766 C4.50795 50.42547 3.34085 53.79593 -0.36328 55.69531 C-1.28367 56.14197 -1.28367 56.14197 -2.22266 56.59766 C-2.22266 57.25766 -2.22266 57.91766 -2.22266 58.59766 C-3.79688 59.63281 -3.79688 59.63281 -5.91016 60.66016 C-6.59465 61.00176 -7.27914 61.34336 -7.98438 61.69531 C-17.32617 65.46138 -28.1725 64.38096 -37.41016 60.94141 C-41.82166 58.83369 -45.89895 56.21513 -49.22266 52.59766 C-49.22266 51.60766 -49.22266 50.61766 -49.22266 49.59766 C-47.39453 47.77344 -47.39453 47.77344 -44.97266 45.91016 C-44.18375 45.28754 -43.39484 44.66492 -42.58203 44.02344 C-40.10922 42.5291 -39.03854 42.10458 -36.22266 42.59766 C-34.54742 43.92021 -32.88159 45.25471 -31.22266 46.59766 C-25.61201 49.14795 -20.01109 49.05626 -13.99609 48.32812 C-13.41086 48.08707 -12.82563 47.84602 -12.22266 47.59766 C-11.16257 44.84882 -11.33191 42.38264 -12.22266 39.59766 C-14.55298 37.71386 -17.34918 37.27943 -20.22266 36.59766 C-22.58241 35.97171 -24.93431 35.31868 -27.28516 34.66016 C-28.2018 34.4042 -28.2018 34.4042 -29.13696 34.14307 C-36.73894 31.96049 -41.6942 29.14708 -46.22266 22.59766 C-48.48035 18.08228 -47.96773 11.53503 -47.22266 6.59766 C-44.72165 0.2018 -39.69476 -2.69259 -33.6875 -5.49219 C-21.9023 -9.84393 -10.15377 -6.88547 0 0 Z " fill="#62BDE7" transform="translate(426.22265625,792.40234375)"/>
<path d="M0 0 C3.60292 2.95624 3.60292 2.95624 4.4375 6 C2.875 8.42969 2.875 8.42969 0.4375 10.875 C-0.34625 11.69742 -1.13 12.51984 -1.9375 13.36719 C-4.5625 15 -4.5625 15 -7.5625 14.44531 C-10.5625 13 -10.5625 13 -13.05078 11.39453 C-16.14162 9.67847 -18.23695 9.63077 -21.75 9.6875 C-22.79543 9.69137 -23.84086 9.69523 -24.91797 9.69922 C-27.71721 9.7396 -27.71721 9.7396 -29.5625 12 C-30.125 14.49465 -30.125 14.49465 -29.5625 17 C-27.54375 18.39927 -27.54375 18.39927 -24.8125 19.125 C-23.80961 19.44984 -22.80672 19.77469 -21.77344 20.10938 C-18.67653 20.96837 -15.57495 21.68137 -12.4375 22.375 C-5.60663 24.01832 0.35915 26.6434 4.15234 32.76953 C6.58008 38.87209 6.64791 46.24012 4.62891 52.51172 C1.3826 58.40898 -4.10033 61.46336 -10.33203 63.60938 C-20.21346 65.33992 -30.73639 64.98718 -39.5625 60 C-40.15418 59.67645 -40.74586 59.35289 -41.35547 59.01953 C-44.85383 56.90324 -47.54134 54.55517 -49.5625 51 C-47.91588 48.7805 -46.73145 47.65427 -44.5625 46.0625 C-44.05332 45.63904 -43.54414 45.21559 -43.01953 44.7793 C-41.5 43.59766 -41.5 43.59766 -38.5625 42 C-35.7205 42.79195 -34.31924 44.19579 -32 46.0625 C-28.39351 48.9292 -25.60002 49.15714 -21.125 49.1875 C-19.70381 49.20877 -19.70381 49.20877 -18.25391 49.23047 C-15.47285 48.99232 -13.84944 48.58816 -11.5625 47 C-10.81235 44.04308 -10.81235 44.04308 -11.5625 41 C-15.80313 37.64142 -20.72566 36.86415 -25.875 35.6875 C-33.97317 33.69514 -40.16336 31.66784 -45.22656 24.71484 C-47.83505 19.41396 -47.38489 12.7341 -46.12891 7.03125 C-43.99588 2.04977 -39.24345 -1.60193 -34.5625 -4.04297 C-22.90453 -8.60758 -10.48027 -6.37929 0 0 Z " fill="#62BEE7" transform="translate(162.5625,691)"/>
<path d="M0 0 C4.46372 3.17999 9.14362 6.6603 11 12 C10.89453 14.07422 10.89453 14.07422 10 16 C8.07422 17.51953 8.07422 17.51953 5.6875 18.8125 C4.90762 19.25207 4.12773 19.69164 3.32422 20.14453 C0.62236 21.139 -0.37717 21.12178 -3 20 C-4.71094 18.66016 -4.71094 18.66016 -6.375 17.0625 C-10.06612 13.80931 -13.06082 12.03775 -18.12891 11.97266 C-23.41455 12.32146 -27.97582 13.42411 -32 17 C-36.16369 22.11222 -36.55986 27.60858 -36.32422 34.01953 C-35.86931 38.20137 -35.1906 42.35444 -33 46 C-31.06443 47.21265 -31.06443 47.21265 -29 48 C-28.29875 48.37125 -27.5975 48.7425 -26.875 49.125 C-21.73801 50.68843 -16.38972 50.58415 -11.1875 49.3125 C-9.21381 48.12829 -8.00887 47.07513 -6.4375 45.4375 C-3.26419 42.26419 -3.26419 42.26419 0 42 C2.54297 43.10938 2.54297 43.10938 5.1875 44.75 C6.06793 45.28109 6.94836 45.81219 7.85547 46.35938 C10 48 10 48 11 51 C5.58471 59.42571 -2.34244 64.00805 -11.83203 66.47656 C-21.88063 68.29589 -32.58466 65.5657 -41 60 C-48.07108 54.70015 -51.61843 47.31373 -53.8125 38.875 C-53.87437 37.92625 -53.93625 36.9775 -54 36 C-54.05027 35.36063 -54.10055 34.72125 -54.15234 34.0625 C-54.55868 24.96052 -52.69826 15.85796 -46.71875 8.80859 C-46.15156 8.21176 -45.58438 7.61492 -45 7 C-44.41219 6.37223 -43.82438 5.74445 -43.21875 5.09766 C-31.62621 -6.13855 -14.07642 -7.14741 0 0 Z " fill="#62BEE7" transform="translate(817,689)"/>
<path d="M0 0 C19.47 0 38.94 0 59 0 C59 4.62 59 9.24 59 14 C51.74 14 44.48 14 37 14 C37 31.49 37 48.98 37 67 C31.72 67 26.44 67 21 67 C21 49.51 21 32.02 21 14 C14.07 14 7.14 14 0 14 C0 9.38 0 4.76 0 0 Z " fill="#62BFE9" transform="translate(624,687)"/>
<path d="M0 0 C11.50292 -1.32443 11.50292 -1.32443 16 0 C18.25691 3.58753 17.3064 7.32084 16.76172 11.375 C16.67101 12.54244 16.59058 13.71072 16.5201 14.87956 C16.3681 17.33322 16.18568 19.78128 15.97754 22.2308 C13.87655 38.75538 13.87655 38.75538 18.25299 53.48138 C24.49865 57.36104 32.87011 55.23873 39.59375 53.73047 C40.8115 53.39906 42.02724 53.0601 43.24023 52.71167 C44.15096 52.47682 45.06168 52.24197 46 52 C48.38362 54.38362 48.42213 58.70606 48.61095 61.93947 C48.45009 64.06036 48.22567 65.25188 47 67 C40.13288 69.94089 31.3487 68.65752 24.0625 68.4375 C21.85485 68.42408 19.64715 68.41683 17.43945 68.41602 C1.33597 68.33597 1.33597 68.33597 0 67 C-0.09475 64.90109 -0.12564 62.83528 -0.11353 60.73608 C-0.11367 60.08245 -0.11382 59.42881 -0.11397 58.75537 C-0.11327 56.58558 -0.10548 54.41587 -0.09766 52.24609 C-0.09579 50.74537 -0.09437 49.24464 -0.09337 47.74391 C-0.08954 43.78682 -0.07971 39.82976 -0.06866 35.87268 C-0.05845 31.83765 -0.05387 27.80262 -0.04883 23.76758 C-0.03809 15.84504 -0.02101 7.92252 0 0 Z " fill="#62BFE9" transform="translate(598,787)"/>
<path d="M0 0 C5.61 0 11.22 0 17 0 C17.06806 6.51138 17.12298 13.02256 17.15544 19.53423 C17.17102 22.5586 17.19213 25.58271 17.22632 28.60693 C17.26547 32.09209 17.27977 35.57715 17.29297 39.0625 C17.30845 40.13677 17.32394 41.21104 17.33989 42.31787 C17.34144 49.28004 16.6369 55.14316 12.64062 60.98828 C12.18172 61.42527 11.72281 61.86227 11.25 62.3125 C10.57711 62.98732 10.57711 62.98732 9.89062 63.67578 C4.57423 67.39945 -0.5175 68.53515 -6.9375 68.4375 C-7.993 68.42505 -7.993 68.42505 -9.06982 68.41235 C-16.60423 68.16691 -21.23712 66.11767 -26.4375 60.625 C-29.04085 57.6315 -30.06236 55.0017 -30 51 C-27.81296 49.22938 -26.33164 48.3141 -23.8125 47.25 C-23.20624 46.98051 -22.59998 46.71101 -21.97534 46.43335 C-20.1875 45.73047 -20.1875 45.73047 -17 45 C-14.43473 46.40733 -13.99593 48.36744 -13 51 C-9.44766 52.77617 -5.83135 53.00086 -2 52 C0.8978 46.44411 0.26578 38.81888 0.19531 32.71484 C0.19107 31.3023 0.19107 31.3023 0.18674 29.86122 C0.17564 26.88651 0.15056 23.91212 0.125 20.9375 C0.11496 18.90691 0.10583 16.87631 0.09766 14.8457 C0.07574 9.89702 0.04128 4.94856 0 0 Z " fill="#62BDE7" transform="translate(359,687)"/>
<path d="M0 0 C5.22787 4.48103 7.83895 8.42565 8.625 15.25 C8.82756 22.32839 7.35896 27.88566 2.625 33.25 C-1.21891 36.87865 -5.11788 37.55735 -10.3125 37.8125 C-16.14232 37.58631 -20.1704 36.36364 -24.375 32.25 C-28.2056 27.7338 -28.72762 22.89594 -28.8125 17.125 C-28.82281 16.5392 -28.83312 15.9534 -28.84375 15.34985 C-28.74029 10.25083 -27.33109 6.50745 -23.98047 2.64062 C-17.03601 -2.94555 -8.02456 -5.01026 0 0 Z " fill="#010304" transform="translate(227.375,702.75)"/>
<path d="M0 0 C5.61 0 11.22 0 17 0 C17 22.11 17 44.22 17 67 C11.72 67 6.44 67 1 67 C-0.39517 64.20966 -0.11955 61.92774 -0.11353 58.80615 C-0.11367 58.17188 -0.11382 57.5376 -0.11397 56.88411 C-0.11327 54.78468 -0.10549 52.68535 -0.09766 50.58594 C-0.09579 49.13148 -0.09437 47.67702 -0.09337 46.22256 C-0.08955 42.39207 -0.07972 38.56162 -0.06866 34.73114 C-0.05844 30.82337 -0.05387 26.91559 -0.04883 23.00781 C-0.0381 15.33852 -0.02051 7.66927 0 0 Z " fill="#62BEE7" transform="translate(555,687)"/>
<path d="M0 0 C2.56364 -0.10845 5.12266 -0.1875 7.6875 -0.25 C8.40873 -0.28352 9.12996 -0.31703 9.87305 -0.35156 C13.76216 -0.4226 15.57584 -0.26692 18.96094 1.86328 C21.34246 4.35886 21.91628 5.5674 22 9 C21.23137 12.22826 20.51775 13.60552 17.86719 15.625 C14.31856 17.3268 11.6238 17.44733 7.75 17.375 C7.1132 17.3866 6.47641 17.3982 5.82031 17.41016 C3.98438 17.39844 3.98438 17.39844 1 17 C-0.15818 13.52546 -0.10956 10.4218 -0.0625 6.8125 C-0.05799 6.1583 -0.05348 5.5041 -0.04883 4.83008 C-0.03708 3.22001 -0.01914 1.60999 0 0 Z " fill="#03090B" transform="translate(286,701)"/>
<path d="M0 0 C4.70903 -1.02965 9.92195 -0.73088 14.46289 0.88574 C16.66182 2.38614 17.79695 3.72811 19.46289 5.88574 C20.01638 9.76015 19.76258 12.66618 17.46289 15.88574 C13.66791 18.5612 9.6558 18.11279 5.21289 18.01074 C4.46781 18.00172 3.72273 17.9927 2.95508 17.9834 C1.12421 17.95993 -0.70649 17.92406 -2.53711 17.88574 C-4.14685 2.38958 -4.14685 2.38958 0 0 Z " fill="#010405" transform="translate(543.537109375,800.1142578125)"/>
<path d="M0 0 C2 1 2 1 2.86963 3.00952 C3.15242 3.87134 3.43521 4.73316 3.72656 5.62109 C4.03594 6.55631 4.34531 7.49152 4.66406 8.45508 C4.98117 9.43928 5.29828 10.42348 5.625 11.4375 C5.94984 12.41783 6.27469 13.39816 6.60938 14.4082 C9 21.70564 9 21.70564 9 24 C3.75486 25.3803 -1.61262 25.09582 -7 25 C-6.38575 19.20735 -4.84467 14.05391 -2.9375 8.5625 C-2.65584 7.73557 -2.37418 6.90863 -2.08398 6.05664 C-1.3948 4.03581 -0.70005 2.01708 0 0 Z " fill="#040B0E" transform="translate(422,704)"/>
<path d="M0 0 C0.66 0 1.32 0 2 0 C2.76196 1.35767 2.76196 1.35767 3.47266 3.25391 C3.86228 4.28935 3.86228 4.28935 4.25977 5.3457 C4.65712 6.44302 4.65712 6.44302 5.0625 7.5625 C5.33127 8.26697 5.60004 8.97145 5.87695 9.69727 C7.58274 14.31268 8.27462 17.92237 9 23 C4.05 23 -0.9 23 -6 23 C-5.21132 17.47921 -4.20648 12.80118 -2.5625 7.5625 C-2.34529 6.83096 -2.12809 6.09941 -1.9043 5.3457 C-1.34268 3.53941 -0.68018 1.76507 0 0 Z " fill="#050C10" transform="translate(475,806)"/>
<path d="M0 0 C2.5 0.1875 2.5 0.1875 5 1 C6.08647 3.05563 6.14368 4.46585 5.54248 6.70093 C4.81791 8.70547 4.02007 10.66292 3.1875 12.625 C2.91357 13.30562 2.63965 13.98625 2.35742 14.6875 C0.28638 19.71362 0.28638 19.71362 -2 22 C-6.55556 21.44444 -6.55556 21.44444 -8 20 C-7.85799 13.60945 -4.66088 4.66088 0 0 Z " fill="#61B8DF" transform="translate(486,581)"/>
<path d="M0 0 C3.25576 0.23216 4.72441 0.75073 7.16797 2.96094 C7.83441 3.75758 8.50086 4.55422 9.1875 5.375 C9.86168 6.16648 10.53586 6.95797 11.23047 7.77344 C15.01118 12.53062 15.01118 12.53062 14.9375 15.625 C14 18 14 18 11.75 19.125 C9 19 9 19 6.5625 17.0625 C5.68778 16.05922 4.83595 15.0358 4 14 C3.16662 13.039 3.16662 13.039 2.31641 12.05859 C-2.0167 6.78482 -2.0167 6.78482 -1.9375 3.0625 C-1 1 -1 1 0 0 Z " fill="#61B8E0" transform="translate(556,567)"/>
<path d="M0 0 C7.92 0 15.84 0 24 0 C24 2.31 24 4.62 24 7 C16.08 7 8.16 7 0 7 C0 4.69 0 2.38 0 0 Z " fill="#010406" transform="translate(500,505)"/>
<path d="M0 0 C2.98832 2.20222 3.95106 4.92624 5.33203 8.30078 C5.60854 8.9176 5.88504 9.53441 6.16992 10.16992 C7.74742 13.90903 8.54842 16.5161 7.01953 20.48828 C4.64453 21.61328 4.64453 21.61328 2.01953 21.48828 C-0.39818 18.03893 -2.07101 14.28647 -3.73047 10.42578 C-4.17906 9.40355 -4.62766 8.38133 -5.08984 7.32812 C-5.99315 4.44784 -6.30199 3.18742 -4.98047 0.48828 C-1.98047 -0.51172 -1.98047 -0.51172 0 0 Z " fill="#61B8E0" transform="translate(537.98046875,581.51171875)"/>
<path d="M0 0 C2.25 1.1875 2.25 1.1875 3.16016 3.40625 C3.28563 7.29061 1.41406 9.13775 -1.0625 11.875 C-1.68802 12.603 -1.68802 12.603 -2.32617 13.3457 C-4.07068 15.36288 -5.86415 17.30165 -7.75 19.1875 C-9.75 19.0625 -9.75 19.0625 -11.75 18.1875 C-13.03516 16.375 -13.03516 16.375 -13.75 14.1875 C-12.80859 12.25781 -12.80859 12.25781 -11.1875 10.3125 C-10.33672 9.28189 -10.33672 9.28189 -9.46875 8.23047 C-8.61797 7.2192 -8.61797 7.2192 -7.75 6.1875 C-7.30656 5.56488 -6.86313 4.94227 -6.40625 4.30078 C-3.44946 0.23519 -3.44946 0.23519 0 0 Z " fill="#61B8E0" transform="translate(484.75,544.8125)"/>
<path d="M0 0 C3.51241 1.27093 5.15948 4.14612 7.35083 7.05005 C7.81812 7.63206 8.2854 8.21407 8.76685 8.81372 C12.06519 13.11569 12.06519 13.11569 11.93677 16.08911 C11.03833 17.73755 11.03833 17.73755 9.35083 18.80005 C5.58152 18.69818 3.52143 16.31779 1.03833 13.73755 C-4.96167 7.09612 -4.96167 7.09612 -4.96167 2.80005 C-3.6892 0.17559 -2.91375 -0.38983 0 0 Z " fill="#61B9E0" transform="translate(540.961669921875,545.262451171875)"/>
<path d="M0 0 C0.76313 0.45375 1.52625 0.9075 2.3125 1.375 C2.08362 5.72381 0.02035 8.73099 -2.5 12.125 C-2.84354 12.61871 -3.18707 13.11242 -3.54102 13.62109 C-5.13419 15.80312 -6.30253 17.21961 -8.83594 18.24219 C-10.6875 18.375 -10.6875 18.375 -12.5 17.75 C-13.08781 17.06938 -13.08781 17.06938 -13.6875 16.375 C-13.33183 11.96773 -11.35613 9.04756 -8.75 5.625 C-8.38971 5.13129 -8.02941 4.63758 -7.6582 4.12891 C-3.91052 -0.90942 -3.91052 -0.90942 0 0 Z " fill="#61B7DF" transform="translate(466.6875,567.625)"/>
<path d="M0 0 C0.5775 0.53625 1.155 1.0725 1.75 1.625 C1.75 7.70949 0.14083 14.50884 -3.25 19.625 C-5.76562 20.47266 -5.76562 20.47266 -8.25 20.625 C-8.91 20.295 -9.57 19.965 -10.25 19.625 C-10.71903 14.97545 -9.75076 11.63268 -7.9375 7.375 C-7.50824 6.33859 -7.07898 5.30219 -6.63672 4.23438 C-4.87441 0.91825 -3.83574 -0.63929 0 0 Z " fill="#61B9E1" transform="translate(499.25,555.375)"/>
<path d="M0 0 C3.37341 1.92398 4.21433 4.2598 5.42969 7.76953 C5.76613 8.62321 5.76613 8.62321 6.10938 9.49414 C7.45215 13.14901 7.86046 15.75623 6.55469 19.45703 C4.61719 20.33203 4.61719 20.33203 2.55469 20.45703 C-0.83727 18.76105 -1.36755 15.00568 -2.63281 11.58203 C-2.91834 10.84855 -3.20387 10.11508 -3.49805 9.35938 C-3.76295 8.65168 -4.02785 7.94398 -4.30078 7.21484 C-4.54466 6.56661 -4.78853 5.91837 -5.03979 5.25049 C-5.44531 3.45703 -5.44531 3.45703 -4.44531 0.45703 C-2.44531 -0.54297 -2.44531 -0.54297 0 0 Z " fill="#61B9E0" transform="translate(527.4453125,555.54296875)"/>
<path d="M0 0 C0.99 0.18562 1.98 0.37125 3 0.5625 C4.08441 3.14311 3.97716 5.79468 4 8.5625 C4.03738 9.3643 4.07477 10.16609 4.11328 10.99219 C4.33398 18.07769 4.33398 18.07769 2 20.5625 C-2.43243 20.13007 -2.43243 20.13007 -4 18.5625 C-4.12939 16.9043 -4.12939 16.9043 -4.13281 14.78125 C-4.1341 14.02199 -4.13539 13.26273 -4.13672 12.48047 C-4.13285 11.68254 -4.12898 10.88461 -4.125 10.0625 C-4.12887 9.26457 -4.13273 8.46664 -4.13672 7.64453 C-4.13543 6.88527 -4.13414 6.12602 -4.13281 5.34375 C-4.13168 4.64314 -4.13056 3.94254 -4.12939 3.2207 C-3.89886 0.26642 -2.97001 0.55688 0 0 Z " fill="#61B8E0" transform="translate(512,584.4375)"/>
<path d="M0 0 C0.61488 0.32227 1.22977 0.64453 1.86328 0.97656 C3.41405 6.93526 3.45385 14.01195 1.86328 19.97656 C-1.20922 21.00073 -2.23868 21.25038 -5.13672 19.97656 C-5.63843 18.24243 -5.63843 18.24243 -5.63281 16.01172 C-5.63346 15.21186 -5.6341 14.41199 -5.63477 13.58789 C-5.61479 12.74678 -5.5948 11.90566 -5.57422 11.03906 C-5.58131 10.20182 -5.5884 9.36457 -5.5957 8.50195 C-5.54726 3.87001 -5.54726 3.87001 -5.13672 1.97656 C-3.28252 0.3033 -2.5224 -0.02767 0 0 Z " fill="#61BBE3" transform="translate(513.13671875,556.0234375)"/>
</svg>